{
  "asset": {
    "generator": "glTF-Transform v4.5.1",
    "version": "2.0"
  },
  "accessors": [
    {
      "type": "SCALAR",
      "componentType": 5123,
      "count": 9090,
      "bufferView": 0,
      "byteOffset": 0
    },
    {
      "type": "VEC3",
      "componentType": 5126,
      "count": 2579,
      "max": [
        0.68697589635849,
        2.0634419918060303,
        0.29065099358558655
      ],
      "min": [
        -0.68697589635849,
        -5.960464477539063e-8,
        -0.29065102338790894
      ],
      "bufferView": 1,
      "byteOffset": 0
    },
    {
      "type": "VEC2",
      "componentType": 5126,
      "count": 2579,
      "bufferView": 1,
      "byteOffset": 12
    },
    {
      "type": "VEC3",
      "componentType": 5126,
      "count": 2579,
      "bufferView": 1,
      "byteOffset": 20
    }
  ],
  "bufferViews": [
    {
      "buffer": 0,
      "byteOffset": 0,
      "byteLength": 18180,
      "target": 34963
    },
    {
      "buffer": 0,
      "byteOffset": 18180,
      "byteLength": 82528,
      "byteStride": 32,
      "target": 34962
    }
  ],
  "samplers": [
    {
      "magFilter": 9729,
      "minFilter": 9987,
      "wrapS": 10497,
      "wrapT": 10497
    }
  ],
  "textures": [
    {
      "source": 0,
      "sampler": 0
    }
  ],
  "images": [
    {
      "name": "wooden_bookshelf_worn_diff",
      "mimeType": "image/jpeg",
      "uri": "textures/wooden_bookshelf_worn_diff_512.jpg"
    }
  ],
  "buffers": [
    {
      "uri": "wooden_bookshelf_worn_lod.bin",
      "byteLength": 100708
    }
  ],
  "materials": [
    {
      "name": "wooden_bookshelf_worn",
      "doubleSided": true,
      "pbrMetallicRoughness": {
        "baseColorTexture": {
          "index": 0
        }
      }
    }
  ],
  "meshes": [
    {
      "name": "Cube.009",
      "primitives": [
        {
          "attributes": {
            "POSITION": 1,
            "TEXCOORD_0": 2,
            "NORMAL": 3
          },
          "mode": 4,
          "material": 0,
          "indices": 0
        }
      ]
    }
  ],
  "nodes": [
    {
      "name": "wooden_bookshelf_worn",
      "mesh": 0
    }
  ],
  "scenes": [
    {
      "name": "Scene",
      "nodes": [
        0
      ]
    }
  ],
  "scene": 0
}