{
  "asset": {
    "generator": "glTF-Transform v4.5.1",
    "version": "2.0"
  },
  "accessors": [
    {
      "type": "SCALAR",
      "componentType": 5123,
      "count": 7569,
      "bufferView": 0,
      "byteOffset": 0
    },
    {
      "type": "SCALAR",
      "componentType": 5123,
      "count": 144,
      "bufferView": 0,
      "byteOffset": 15140
    },
    {
      "type": "VEC3",
      "componentType": 5126,
      "count": 2043,
      "max": [
        0.1708972305059433,
        0.1609092652797699,
        0.06302276998758316
      ],
      "min": [
        -0.1708972305059433,
        0.0004705276223830879,
        -0.06302276253700256
      ],
      "bufferView": 1,
      "byteOffset": 0
    },
    {
      "type": "VEC2",
      "componentType": 5126,
      "count": 2043,
      "bufferView": 1,
      "byteOffset": 12
    },
    {
      "type": "VEC3",
      "componentType": 5126,
      "count": 2043,
      "bufferView": 1,
      "byteOffset": 20
    },
    {
      "type": "VEC3",
      "componentType": 5126,
      "count": 41,
      "max": [
        0.05397588014602661,
        0.05397584289312363,
        0.0011790543794631958
      ],
      "min": [
        -0.05397588014602661,
        -0.053975917398929596,
        -0.0025894194841384888
      ],
      "bufferView": 2,
      "byteOffset": 0
    },
    {
      "type": "VEC2",
      "componentType": 5126,
      "count": 41,
      "bufferView": 2,
      "byteOffset": 12
    },
    {
      "type": "VEC3",
      "componentType": 5126,
      "count": 41,
      "bufferView": 2,
      "byteOffset": 20
    }
  ],
  "bufferViews": [
    {
      "buffer": 0,
      "byteOffset": 0,
      "byteLength": 15428,
      "target": 34963
    },
    {
      "buffer": 0,
      "byteOffset": 15428,
      "byteLength": 65376,
      "byteStride": 32,
      "target": 34962
    },
    {
      "buffer": 0,
      "byteOffset": 80804,
      "byteLength": 1312,
      "byteStride": 32,
      "target": 34962
    }
  ],
  "samplers": [
    {
      "magFilter": 9729,
      "minFilter": 9987,
      "wrapS": 10497,
      "wrapT": 10497
    }
  ],
  "textures": [
    {
      "source": 0,
      "sampler": 0
    }
  ],
  "images": [
    {
      "name": "mantel_clock_01_diff",
      "mimeType": "image/jpeg",
      "uri": "textures/mantel_clock_01_diff_512.jpg"
    }
  ],
  "buffers": [
    {
      "uri": "mantel_clock_01_lod.bin",
      "byteLength": 82116
    }
  ],
  "materials": [
    {
      "name": "mantel_clock_01",
      "doubleSided": true,
      "pbrMetallicRoughness": {
        "baseColorTexture": {
          "index": 0
        }
      }
    },
    {
      "name": "mantel_clock_01_glass",
      "alphaMode": "BLEND",
      "doubleSided": true,
      "pbrMetallicRoughness": {
        "baseColorFactor": [
          1,
          1,
          1,
          0.30000001192092896
        ],
        "metallicFactor": 0,
        "baseColorTexture": {
          "index": 0
        }
      }
    }
  ],
  "meshes": [
    {
      "name": "Plane.021",
      "primitives": [
        {
          "attributes": {
            "POSITION": 2,
            "TEXCOORD_0": 3,
            "NORMAL": 4
          },
          "mode": 4,
          "material": 0,
          "indices": 0
        }
      ]
    },
    {
      "name": "Plane.001",
      "primitives": [
        {
          "attributes": {
            "POSITION": 5,
            "TEXCOORD_0": 6,
            "NORMAL": 7
          },
          "mode": 4,
          "material": 1,
          "indices": 1
        }
      ]
    }
  ],
  "nodes": [
    {
      "name": "mantel_clock_01",
      "mesh": 0
    },
    {
      "name": "mantel_clock_01_glass",
      "translation": [
        0,
        0.09149909764528275,
        0.05647554621100426
      ],
      "mesh": 1
    }
  ],
  "scenes": [
    {
      "name": "Scene",
      "nodes": [
        0,
        1
      ]
    }
  ],
  "scene": 0
}